<mxfile host="app.diagrams.net" modified="2020-12-08T13:11:00.233Z" agent="5.0 (Windows)" etag="Tf25AKIjDDvh1WDmNpDU" version="13.10.6" type="github">
  <diagram name="Page-1" id="0783ab3e-0a74-02c8-0abd-f7b4e66b4bec">
    <mxGraphModel dx="572" dy="1828" grid="1" gridSize="10" guides="1" tooltips="1" connect="1" arrows="1" fold="1" page="1" pageScale="1" pageWidth="850" pageHeight="1100" background="#ffffff" math="0" shadow="0">
      <root>
        <mxCell id="0" />
        <mxCell id="1" parent="0" />
        <mxCell id="JO4g9t1cBD4z2ZxlLGge-1" value="" style="ellipse;fillColor=#000000;strokeColor=none;aspect=fixed;" parent="1" vertex="1">
          <mxGeometry x="1255.25" y="-1020" width="40" height="41.03" as="geometry" />
        </mxCell>
        <mxCell id="JO4g9t1cBD4z2ZxlLGge-3" value="" style="endArrow=open;endFill=1;endSize=12;html=1;fontSize=21;exitX=0.5;exitY=1;exitDx=0;exitDy=0;entryX=0.5;entryY=0;entryDx=0;entryDy=0;" parent="1" source="JO4g9t1cBD4z2ZxlLGge-1" target="JO4g9t1cBD4z2ZxlLGge-4" edge="1">
          <mxGeometry width="160" relative="1" as="geometry">
            <mxPoint x="1300" y="-650" as="sourcePoint" />
            <mxPoint x="1460" y="-650" as="targetPoint" />
          </mxGeometry>
        </mxCell>
        <mxCell id="JO4g9t1cBD4z2ZxlLGge-4" value="نمایش رستوران ها در صفحه اصلی " style="shape=rect;html=1;rounded=1;whiteSpace=wrap;align=center;fontSize=21;fontStyle=1" parent="1" vertex="1">
          <mxGeometry x="1188" y="-930" width="174" height="70" as="geometry" />
        </mxCell>
        <mxCell id="JO4g9t1cBD4z2ZxlLGge-18" value="" style="ellipse;html=1;shape=endState;fillColor=#000000;strokeColor=#000000;" parent="1" vertex="1">
          <mxGeometry x="1260.25" y="-810" width="30" height="30" as="geometry" />
        </mxCell>
        <mxCell id="4_xnt2c1TBkoNEsXS_dp-1" value="" style="endArrow=open;endFill=1;endSize=12;html=1;fontSize=15;exitX=0.5;exitY=1;exitDx=0;exitDy=0;" edge="1" parent="1" source="JO4g9t1cBD4z2ZxlLGge-4" target="JO4g9t1cBD4z2ZxlLGge-18">
          <mxGeometry width="160" relative="1" as="geometry">
            <mxPoint x="1275" y="-860" as="sourcePoint" />
            <mxPoint x="1275" y="-710" as="targetPoint" />
          </mxGeometry>
        </mxCell>
      </root>
    </mxGraphModel>
  </diagram>
</mxfile>
